<svg width="45" height="45" viewBox="0 0 45 45" fill="none" xmlns="http://www.w3.org/2000/svg">
<g clip-path="url(#clip0_40_96)">
<path d="M19.3966 14.3429H11.6379V13.5107C13.2044 13.2766 14.5384 12.2766 15.235 10.7996C16 9.17963 15.8635 7.25553 14.8781 5.77905L11.5078 0.722617C11.2199 0.290459 10.5046 0.290459 10.2168 0.722617L6.84563 5.77896C5.86028 7.25544 5.72449 9.17954 6.4887 10.7995C7.18541 12.2767 8.5195 13.2767 10.0862 13.5107V14.3429H2.32761C1.04432 14.3429 0 15.3872 0 16.6704V20.9376C0 22.1453 0.616816 23.2117 1.55171 23.8389V42.2739C1.55171 43.5572 2.59603 44.6015 3.87932 44.6015H18.6207C19.904 44.6015 20.9483 43.5572 20.9483 42.2739V24.6102C21.424 24.1837 21.7242 23.565 21.7242 22.8773V16.6704C21.7241 15.3872 20.6798 14.3429 19.3966 14.3429ZM11.9684 11.5742C11.6879 11.8458 11.3257 11.9909 10.9569 12.0123C10.894 12.0137 10.8311 12.0138 10.7681 12.0123C10.3991 11.9909 10.0362 11.8458 9.75489 11.5734C9.46863 11.2972 9.31034 10.9302 9.31034 10.5415C9.31034 10.1528 9.46863 9.78581 9.75568 9.50808L10.8621 8.43897L11.9684 9.50808C12.2555 9.78581 12.4138 10.1528 12.4138 10.5415C12.4138 10.9301 12.2556 11.2973 11.9684 11.5742ZM8.13674 6.63933L10.8623 2.55127L13.5871 6.63933C14.2363 7.61298 14.353 8.86911 13.9084 9.96133C13.7914 9.36982 13.4959 8.82675 13.0468 8.39239L11.4013 6.80272C11.1002 6.5118 10.6239 6.5118 10.3228 6.80272L8.67727 8.39239C8.22841 8.82657 7.93292 9.36939 7.81576 9.96071C7.37086 8.86876 7.48767 7.61289 8.13674 6.63933ZM1.55171 16.6704C1.55171 16.2421 1.89932 15.8945 2.32761 15.8945H19.3966C19.8249 15.8945 20.1725 16.2421 20.1725 16.6704V22.8773C20.1725 23.1412 20.0402 23.3741 19.8388 23.5143C19.8007 23.5325 19.7641 23.5533 19.7298 23.5772C19.6287 23.6254 19.516 23.6532 19.3967 23.6532C18.9684 23.6532 18.6208 23.3056 18.6208 22.8773C18.6208 22.4482 18.274 22.1014 17.8449 22.1014C17.4158 22.1014 17.069 22.4482 17.069 22.8773V24.429C17.069 25.7123 16.0247 26.7566 14.7414 26.7566C13.4581 26.7566 12.4138 25.7123 12.4138 24.429C12.4138 23.9999 12.0669 23.6531 11.6379 23.6531C11.2088 23.6531 10.862 23.9999 10.862 24.429V24.817C10.862 25.8868 9.9922 26.7566 8.9223 26.7566C7.85241 26.7566 6.98265 25.8868 6.98265 24.817V20.9376C6.98265 20.5086 6.63583 20.1617 6.20675 20.1617C5.77767 20.1617 5.43085 20.5086 5.43085 20.9376C5.43085 22.0075 4.56108 22.8773 3.49119 22.8773C3.2262 22.8773 2.97352 22.8238 2.74324 22.7273C2.69068 22.6939 2.63399 22.6665 2.57388 22.6464C1.96567 22.3187 1.55153 21.6759 1.55153 20.9377V16.6704H1.55171ZM19.3966 42.2739C19.3966 42.7022 19.049 43.0498 18.6207 43.0498H3.87932C3.45103 43.0498 3.10342 42.7022 3.10342 42.2739V24.4069C3.23086 24.4211 3.36015 24.429 3.49137 24.429C4.20829 24.429 4.87547 24.2117 5.43103 23.8393V24.817C5.43103 26.7418 6.9975 28.3083 8.92239 28.3083C10.0761 28.3083 11.101 27.7458 11.7372 26.8807C12.4487 27.7513 13.5309 28.3083 14.7413 28.3083C16.6678 28.3083 18.2707 26.8971 18.5709 25.0536C18.8278 25.1513 19.1055 25.2048 19.3965 25.2048V42.2739H19.3966Z" fill="black"/>
<path d="M42.6725 14.3429H34.9138V13.5107C36.4804 13.2766 37.8143 12.2766 38.5109 10.7995C39.2759 9.17954 39.1393 7.25544 38.154 5.77896L34.7837 0.722617C34.4959 0.290459 33.7806 0.290459 33.4927 0.722617L30.1216 5.77888C29.1363 7.25535 29.0005 9.17945 29.7647 10.7995C30.4614 12.2766 31.7955 13.2766 33.3621 13.5106V14.3428H25.6035C24.3202 14.3428 23.2759 15.3871 23.2759 16.6704V20.9376C23.2759 22.1453 23.8927 23.2117 24.8276 23.8389V42.2739C24.8276 43.5572 25.8719 44.6015 27.1552 44.6015H41.8967C43.1799 44.6015 44.2243 43.5572 44.2243 42.2739V24.6102C44.7 24.1837 45.0002 23.565 45.0002 22.8773V16.6704C45.0001 15.3872 43.9558 14.3429 42.6725 14.3429ZM35.2444 11.5742C34.9638 11.8458 34.6016 11.9909 34.2329 12.0123C34.1699 12.0137 34.1071 12.0137 34.0441 12.0123C33.6751 11.9909 33.3122 11.8458 33.0309 11.5734C32.7446 11.2972 32.5863 10.9302 32.5863 10.5415C32.5863 10.1528 32.7446 9.78581 33.0316 9.50808L34.138 8.43897L35.2444 9.50808C35.5314 9.78581 35.6897 10.1528 35.6897 10.5415C35.6897 10.9301 35.5314 11.2973 35.2444 11.5742ZM31.4126 6.63933L34.1382 2.55127L36.8631 6.63933C37.5122 7.61298 37.6289 8.86911 37.1844 9.96133C37.0673 9.36982 36.7718 8.82675 36.3228 8.39239L34.6772 6.80272C34.3762 6.5118 33.8998 6.5118 33.5988 6.80272L31.9532 8.39248C31.5044 8.82666 31.2089 9.36947 31.0917 9.9608C30.6467 8.86876 30.7636 7.61289 31.4126 6.63933ZM24.8277 16.6704C24.8277 16.2421 25.1753 15.8945 25.6036 15.8945H42.6725C43.1008 15.8945 43.4484 16.2421 43.4484 16.6704V22.8773C43.4484 23.1412 43.3162 23.3741 43.1147 23.5143C43.0766 23.5325 43.0401 23.5533 43.0057 23.5772C42.9047 23.6254 42.792 23.6532 42.6726 23.6532C42.2443 23.6532 41.8967 23.3056 41.8967 22.8773C41.8967 22.4482 41.5499 22.1014 41.1208 22.1014C40.6918 22.1014 40.3449 22.4482 40.3449 22.8773V24.429C40.3449 25.7123 39.3006 26.7566 38.0173 26.7566C36.734 26.7566 35.6897 25.7123 35.6897 24.429C35.6897 23.9999 35.3429 23.6531 34.9138 23.6531C34.4847 23.6531 34.1379 23.9999 34.1379 24.429V24.817C34.1379 25.8868 33.2682 26.7566 32.1983 26.7566C31.1284 26.7566 30.2586 25.8868 30.2586 24.817V20.9376C30.2586 20.5086 29.9118 20.1617 29.4827 20.1617C29.0536 20.1617 28.7068 20.5086 28.7068 20.9376C28.7068 22.0075 27.8371 22.8773 26.7672 22.8773C26.5022 22.8773 26.2495 22.8238 26.0192 22.7273C25.9667 22.6939 25.9101 22.6665 25.8499 22.6464C25.2417 22.3187 24.8276 21.6759 24.8276 20.9377V16.6704H24.8277ZM42.6725 42.2739C42.6725 42.7022 42.3249 43.0498 41.8966 43.0498H27.1553C26.727 43.0498 26.3794 42.7022 26.3794 42.2739V24.4069C26.5068 24.4211 26.6361 24.429 26.7673 24.429C27.4843 24.429 28.1514 24.2117 28.707 23.8393V24.817C28.707 26.7418 30.2735 28.3083 32.1984 28.3083C33.3521 28.3083 34.377 27.7458 35.0131 26.8807C35.7246 27.7513 36.8069 28.3083 38.0172 28.3083C39.9437 28.3083 41.5467 26.8971 41.8469 25.0536C42.1037 25.1513 42.3815 25.2048 42.6725 25.2048V42.2739Z" fill="black"/>
</g>
<defs>
<clipPath id="clip0_40_96">
<rect width="45" height="45" fill="white"/>
</clipPath>
</defs>
</svg>
