<svg width="45" height="45" viewBox="0 0 45 45" fill="none" xmlns="http://www.w3.org/2000/svg">
<path d="M41.7307 30.9169L38.1106 18.8826C37.9738 18.4379 37.5608 18.1308 37.0952 18.1308H35.8307V3.375C35.8299 1.50961 34.3195 0.000791016 32.4549 0H12.4518C10.5872 0.000791016 9.07681 1.50961 9.07681 3.375V18.4804H8.25239C7.81312 18.4804 7.41638 18.755 7.26248 19.168L3.2936 29.753C3.16599 30.091 3.21934 30.4676 3.4366 30.7585C3.64772 31.0446 3.9919 31.2032 4.35154 31.1815L8.25248 30.917V42.2955C8.25248 43.7882 9.46432 45 10.9515 45H33.9569C35.4433 45 36.6559 43.7882 36.6559 42.2955V31.838L40.5985 32.2773C40.9473 32.3137 41.3023 32.1713 41.5296 31.9015C41.7569 31.6317 41.8313 31.2557 41.7307 30.9169ZM27.3701 2.0533H32.455C32.8232 2.05409 33.1479 2.19955 33.39 2.44072C33.6313 2.68277 33.7767 3.00691 33.7774 3.375V8.82334H27.3701V2.0533ZM27.3701 10.3631H33.7774V17.2423H27.3701V10.3631ZM27.3701 18.7821H33.5447L32.977 19.0094L27.5216 21.1903L27.37 21.2507V18.7821H27.3701ZM19.1105 2.0533H25.8296V8.82334H19.1105V2.0533ZM19.1105 10.3631H25.8296V17.2423H19.1105V10.3631ZM19.1105 18.7821H25.8296V21.8662L21.0966 23.7618L19.1106 22.7062V18.7821H19.1105ZM11.1301 3.375C11.1301 3.00691 11.2763 2.68286 11.5168 2.44072C11.7596 2.19955 12.0837 2.05409 12.4518 2.0533H17.5707V8.82334H11.1301V3.375ZM11.1301 10.3631H17.5707V17.2423H11.1301V10.3631ZM17.5707 18.7821V21.8894L17.4183 21.8091L12.1525 19.0094L11.7248 18.7821H17.5707ZM21.0702 27.9325L18.9055 28.0802L8.25248 28.8002L5.84955 28.9587L8.98795 20.5971H10.6336L19.3132 25.2118L20.6944 25.9418L20.9751 26.0903L21.303 26.2651L23.5837 27.477L24.0601 27.7306L21.0702 27.9325ZM36.6559 29.6996L31.0157 29.0687L28.343 27.614C28.3384 27.6108 28.336 27.607 28.3314 27.6047L28.0932 27.4771L23.5473 25.0633L35.5871 20.2476H36.3064L39.2381 29.9913L36.6559 29.6996Z" fill="black"/>
</svg>
