<svg width="45" height="45" viewBox="0 0 45 45" fill="none" xmlns="http://www.w3.org/2000/svg">
<path d="M35.6469 0.454092C35.9618 0.113516 36.4892 0.0915429 36.8298 0.406484C37.1703 0.721426 37.1923 1.24877 36.8774 1.58935L30.0219 9.00878L30.0109 9.02343C29.1723 10.0378 28.5973 10.9753 28.341 11.8323C28.1139 12.5903 28.1469 13.2788 28.4838 13.8794C28.6633 14.2017 28.6047 14.5972 28.3666 14.8572L25.111 18.3801C24.7924 18.0322 24.5397 17.7502 24.3713 17.5671C24.2944 17.4646 24.2065 17.3657 24.1149 17.2705L24.1076 17.2778C24.0636 17.2302 24.016 17.1863 23.9684 17.1423L26.7516 14.1284C26.4257 13.2568 26.4294 12.3303 26.7297 11.3452C27.0519 10.2759 27.7367 9.13695 28.7218 7.95043C28.7438 7.92113 28.7621 7.89184 28.7878 7.8662L35.6396 0.446768L35.6469 0.454092ZM20.9216 20.3284C20.6139 19.9841 20.6432 19.4531 20.9875 19.1455C21.3317 18.8379 21.8627 18.8672 22.1703 19.2114C25.6164 23.0713 36.2695 34.4934 39.2211 38.7634C43.1139 44.2749 37.0861 46.0107 35.0866 44.0039C30.0915 39.1736 19.486 26.8579 14.8241 21.6357C13.1469 22.3462 11.5173 22.456 9.8803 21.9873C8.11882 21.4856 6.39397 20.31 4.64348 18.5046L4.62151 18.4827C3.2885 17.0764 2.2448 15.6885 1.4904 14.3152C0.717698 12.9016 0.245286 11.5027 0.0768289 10.1147C-0.102614 8.6206 0.0365458 7.22899 0.439378 5.99486C0.91179 4.54467 1.75041 3.31786 2.84905 2.406C3.955 1.49047 5.31365 0.897207 6.82976 0.714101C8.08952 0.563955 9.46281 0.692129 10.8837 1.15722C12.8503 1.79809 15.1427 3.3911 17.0434 5.43456C18.446 6.93969 19.6471 8.70116 20.3613 10.5139C21.1047 12.4036 21.3317 14.3591 20.7348 16.1902C20.3832 17.2742 19.746 18.2922 18.7572 19.2114C18.4167 19.5264 17.8893 19.5044 17.5744 19.1675C17.2594 18.8269 17.2814 18.2996 17.6183 17.9846C18.3837 17.2705 18.8744 16.4905 19.1418 15.6665C19.6032 14.2493 19.4091 12.6782 18.8012 11.1328C18.164 9.51415 17.0837 7.93212 15.8166 6.57348C14.1027 4.7351 12.0702 3.31054 10.3564 2.75023C9.18083 2.36938 8.05657 2.25951 7.02751 2.38402C5.83366 2.53051 4.76433 2.98827 3.91106 3.70238C3.05412 4.41649 2.39861 5.37963 2.02141 6.52587C1.69548 7.52563 1.58196 8.67553 1.7321 9.91698C1.87492 11.0889 2.28142 12.2864 2.94792 13.5095C3.64739 14.7656 4.60686 16.0364 5.84099 17.3364L5.84831 17.3474C7.39372 18.9404 8.87688 19.9658 10.3454 20.3833C11.7333 20.7788 13.1469 20.625 14.6227 19.8889C14.9596 19.6948 15.3954 19.7607 15.6628 20.061C20.2111 25.155 31.2743 37.9761 36.1742 42.7258C38.3019 43.5937 39.4811 42.5244 38.4631 40.6384C36.8774 37.6941 23.2543 22.9504 20.9216 20.3284ZM16.5051 27.6929L5.82634 39.2468C5.80437 39.2688 5.78606 39.2908 5.76042 39.3127C4.20036 40.9973 6.96159 43.4509 8.67546 41.8103L19.0466 30.5859L20.1598 31.8494L9.86931 42.9858C9.84734 43.0115 9.82536 43.0334 9.79607 43.0591C9.18083 43.5754 8.56194 43.9123 7.93572 44.0515C7.29118 44.198 6.65764 44.1321 6.04973 43.8464C5.94719 43.8061 5.85197 43.7549 5.76775 43.678L4.29192 42.312C4.26994 42.29 4.24797 42.2717 4.226 42.2461C3.65471 41.5869 3.38371 40.8838 3.45696 40.1404C3.52654 39.4372 3.90007 38.7524 4.60686 38.0933L15.3881 26.4258L16.5051 27.6929ZM27.6965 21.2256L28.33 20.5408C28.6449 20.2002 29.1759 20.1782 29.5129 20.4932C29.8498 20.8081 29.8754 21.3354 29.5605 21.676L28.828 22.467L27.6965 21.2256ZM38.2507 2.90404C38.5656 2.56347 39.0929 2.54149 39.4335 2.85644C39.7741 3.17138 39.7961 3.69872 39.4811 4.0393L33.4716 10.5469C33.1567 10.8874 32.6293 10.9094 32.2887 10.5945C31.9482 10.2795 31.9262 9.75219 32.2411 9.41161L38.2507 2.90404ZM40.8508 5.31005C41.1657 4.96947 41.693 4.9475 42.0336 5.26244C42.3742 5.57738 42.3962 6.10473 42.0812 6.4453L36.0754 12.9492C35.7604 13.2898 35.2331 13.3118 34.8925 12.9968C34.5519 12.6819 34.53 12.1545 34.8449 11.814L40.8508 5.31005ZM43.5461 7.81127C43.861 7.47069 44.3883 7.44872 44.7289 7.76366C45.0695 8.0786 45.0915 8.60961 44.7765 8.94652L37.9211 16.3696C37.8954 16.3953 37.8698 16.4172 37.8442 16.4429C36.2841 17.9443 34.7936 18.8122 33.3691 19.0576C31.8237 19.3249 30.4064 18.8855 29.1064 17.7502C28.7585 17.4463 28.7255 16.9153 29.0258 16.571C29.3298 16.2231 29.8608 16.1902 30.205 16.4905C31.1022 17.2742 32.0617 17.5818 33.0761 17.4023C34.1674 17.2156 35.3686 16.4941 36.6796 15.2307L36.6869 15.2234L43.5387 7.80761L43.5461 7.81127Z" fill="black"/>
</svg>
