<svg width="388" height="168" viewBox="0 0 388 168" fill="none" xmlns="http://www.w3.org/2000/svg">
<rect width="388" height="168" fill="white"/>
<path d="M266.753 108.545L206.885 142.726L147.016 108.545V40.1814L206.885 6L266.753 40.1814V108.545Z" fill="#D3C68F"/>
<path d="M126.737 128.374L66.868 162.556L7 128.374V60.0106L66.868 25.8292L126.737 60.0106V128.374Z" fill="#FABD09"/>
<path d="M63.1213 97.1641V71.5087H57.1912L50.1493 82.9071L43.1075 71.5087H37.178V97.1641H43.1075V82.2477L49.8164 93.1329H50.4829L57.1912 82.2477V97.1641H63.1213Z" fill="#403127"/>
<path d="M83.6875 77.153V71.5087H67.5658V97.1641H83.8731V91.5198H73.4959V86.9754H82.7613V81.4051H73.4959V77.153H83.6875" fill="#403127"/>
<path d="M101.661 91.5198H94.4716C95.3984 89.8709 96.139 87.3054 96.139 83.0903V77.0062H101.661V91.5198ZM110.371 102.075V91.5198H107.591V71.5087H90.2095V83.0176C90.2095 87.3788 89.3573 89.8345 88.1716 91.5198H85.5398V102.075H91.4693V97.1642H104.441V102.075H110.371Z" fill="#403127"/>
<path d="M165.772 71.5087V97.1641H171.702V85.2901L180.003 97.1641H186.748L177.631 84.007L186.378 71.5087H179.632L171.702 82.6511V71.5087H165.772" fill="#403127"/>
<path d="M199.866 76.7131C204.091 76.7131 207.425 79.7555 207.425 84.3364C207.425 88.9178 204.091 91.9603 199.866 91.9603C195.64 91.9603 192.305 88.9178 192.305 84.3364C192.305 79.7555 195.64 76.7131 199.866 76.7131ZM199.866 97.6774C207.316 97.6774 213.356 91.8862 213.356 84.3364C213.356 76.7865 207.316 70.9954 199.866 70.9954C192.417 70.9954 186.376 76.7865 186.376 84.3364C186.376 91.8862 192.417 97.6774 199.866 97.6774" fill="#403127"/>
<path d="M237.443 97.1641V71.5087H231.514V81.331H223.36V71.5087H217.431V97.1641H223.36V86.9754H231.514V97.1641H237.443Z" fill="#403127"/>
<path d="M258.568 89.5039V79.1689C262.422 79.6821 264.274 81.4051 264.274 84.3364C264.274 87.269 262.422 88.9907 258.568 89.5039V89.5039ZM252.786 89.5039C248.932 88.9907 247.079 87.269 247.079 84.3364C247.079 81.4051 248.932 79.6821 252.786 79.1689V89.5039ZM258.568 73.7812V70.7758H252.786V73.7812C245.744 74.6238 241.149 78.5088 241.149 84.3364C241.149 90.1639 245.744 94.049 252.786 94.8916V97.8976H258.568V94.8916C265.609 94.049 270.205 90.1639 270.205 84.3364C270.205 78.5088 265.609 74.6238 258.568 73.7812Z" fill="#403127"/>
<path d="M279.097 85.4363V71.5087H273.167V97.1641H277.614L287.621 83.2371V97.1641H293.551V71.5087H289.103L279.097 85.4363Z" fill="#403127"/>
<path d="M296.142 77.153H302.814V97.1641H308.744V77.153H315.414V71.5087H296.142V77.153Z" fill="#403127"/>
<path d="M340.467 91.9603C336.243 91.9603 332.907 88.9178 332.907 84.3364C332.907 79.6087 336.243 76.7131 340.467 76.7131C344.692 76.7131 348.028 79.7555 348.028 84.3364C348.028 88.9178 344.692 91.9603 340.467 91.9603ZM340.467 70.9954C334.093 70.9954 328.867 75.2104 327.496 81.1478H323.938V71.5086H318.008V97.1641H323.938V86.7921H327.347C328.459 93.0959 333.833 97.6774 340.467 97.6774C347.916 97.6774 353.958 91.8128 353.958 84.3364C353.958 76.7865 347.916 70.9954 340.467 70.9954" fill="#403127"/>
<path d="M367.112 83.6036H363.22V77.0062H367.112C368.927 77.0062 370.262 78.4361 370.262 80.3052C370.262 82.1743 368.927 83.6036 367.112 83.6036ZM367.112 71.5087H357.29V97.1641H363.22V89.1011H367.112C372.226 89.1011 376.191 85.1797 376.191 80.3052C376.191 75.4301 372.226 71.5087 367.112 71.5087" fill="#403127"/>
<path d="M146.865 54.1001L199.771 23.3192L252.676 54.0994V62.7925H258.578V50.7627L199.771 16.5482L140.963 50.7621V63.4475H146.865V54.1001" fill="#403127"/>
<path d="M252.676 115.757L199.771 146.536L146.865 115.757L146.874 71.5086H142.426L132.419 85.4363L132.412 50.7462L72.543 16.5648L12.675 50.7462V119.11L72.543 153.291L132.412 119.11V105.229H126.51V115.74L72.543 146.553L18.5764 115.74V54.116L72.543 23.3033L126.51 54.116L126.49 97.1641H130.937L140.943 83.2371L140.963 119.094L199.771 153.307L258.578 119.094V105.938H252.676V115.757Z" fill="#403127"/>
<path d="M76.9748 69.0919H82.6823V63.4475H76.9748V69.0919Z" fill="#403127"/>
<path d="M69.0061 69.0919H74.7142V63.4475H69.0061V69.0919Z" fill="#403127"/>
</svg>
